<svg version="1.1" viewBox="0.0 0.0 558.0 371.0" fill="none" stroke="none" stroke-linecap="square" stroke-miterlimit="10" width="558" height="371" xmlns:xlink="http://www.w3.org/1999/xlink" xmlns="http://www.w3.org/2000/svg"><path fill="#ffffff" d="M0 0L558.0 0L558.0 371.0L0 371.0L0 0Z" fill-rule="nonzero"/><path stroke="#cccccc" stroke-width="1.0" stroke-linecap="butt" d="M158.5 81.5L158.5 304.5" fill-rule="nonzero"/><path stroke="#cccccc" stroke-width="1.0" stroke-linecap="butt" d="M248.5 81.5L248.5 304.5" fill-rule="nonzero"/><path stroke="#cccccc" stroke-width="1.0" stroke-linecap="butt" d="M338.5 81.5L338.5 304.5" fill-rule="nonzero"/><path stroke="#cccccc" stroke-width="1.0" stroke-linecap="butt" d="M427.5 81.5L427.5 304.5" fill-rule="nonzero"/><path stroke="#cccccc" stroke-width="1.0" stroke-linecap="butt" d="M517.5 81.5L517.5 304.5" fill-rule="nonzero"/><path stroke="#333333" stroke-width="1.0" stroke-linecap="butt" d="M74.5 304.5L528.5 304.5" fill-rule="nonzero"/><path stroke="#cccccc" stroke-width="1.0" stroke-linecap="butt" d="M74.5 270.5L528.5 270.5" fill-rule="nonzero"/><path stroke="#cccccc" stroke-width="1.0" stroke-linecap="butt" d="M74.5 235.5L528.5 235.5" fill-rule="nonzero"/><path stroke="#cccccc" stroke-width="1.0" stroke-linecap="butt" d="M74.5 201.5L528.5 201.5" fill-rule="nonzero"/><path stroke="#cccccc" stroke-width="1.0" stroke-linecap="butt" d="M74.5 167.5L528.5 167.5" fill-rule="nonzero"/><path stroke="#cccccc" stroke-width="1.0" stroke-linecap="butt" d="M74.5 132.5L528.5 132.5" fill-rule="nonzero"/><path stroke="#cccccc" stroke-width="1.0" stroke-linecap="butt" d="M74.5 98.5L528.5 98.5" fill-rule="nonzero"/><path stroke="#000000" stroke-width="1.0" stroke-linecap="butt" stroke-opacity="0.0" d="M74.5 293.5L528.5 293.5" fill-rule="nonzero"/><path stroke="#000000" stroke-width="1.0" stroke-linecap="butt" stroke-opacity="0.0" d="M74.5 281.5L528.5 281.5" fill-rule="nonzero"/><path stroke="#000000" stroke-width="1.0" stroke-linecap="butt" stroke-opacity="0.0" d="M74.5 258.5L528.5 258.5" fill-rule="nonzero"/><path stroke="#000000" stroke-width="1.0" stroke-linecap="butt" stroke-opacity="0.0" d="M74.5 247.5L528.5 247.5" fill-rule="nonzero"/><path stroke="#000000" stroke-width="1.0" stroke-linecap="butt" stroke-opacity="0.0" d="M74.5 224.5L528.5 224.5" fill-rule="nonzero"/><path stroke="#000000" stroke-width="1.0" stroke-linecap="butt" stroke-opacity="0.0" d="M74.5 212.5L528.5 212.5" fill-rule="nonzero"/><path stroke="#000000" stroke-width="1.0" stroke-linecap="butt" stroke-opacity="0.0" d="M74.5 190.5L528.5 190.5" fill-rule="nonzero"/><path stroke="#000000" stroke-width="1.0" stroke-linecap="butt" stroke-opacity="0.0" d="M74.5 178.5L528.5 178.5" fill-rule="nonzero"/><path stroke="#000000" stroke-width="1.0" stroke-linecap="butt" stroke-opacity="0.0" d="M74.5 155.5L528.5 155.5" fill-rule="nonzero"/><path stroke="#000000" stroke-width="1.0" stroke-linecap="butt" stroke-opacity="0.0" d="M74.5 144.5L528.5 144.5" fill-rule="nonzero"/><path stroke="#000000" stroke-width="1.0" stroke-linecap="butt" stroke-opacity="0.0" d="M74.5 121.5L528.5 121.5" fill-rule="nonzero"/><path stroke="#000000" stroke-width="1.0" stroke-linecap="butt" stroke-opacity="0.0" d="M74.5 109.5L528.5 109.5" fill-rule="nonzero"/><path stroke="#000000" stroke-width="1.0" stroke-linecap="butt" stroke-opacity="0.0" d="M74.5 87.5L528.5 87.5" fill-rule="nonzero"/><clipPath id="id_0"><path d="M74.55 81.28333L528.5 81.28333L528.5 304.45L74.55 304.45L74.55 81.28333Z" clip-rule="nonzero"/></clipPath><path stroke="#4285f4" stroke-width="2.0" stroke-linecap="butt" clip-path="url(#id_0)" d="M74.55 301.96573L148.21811 270.11667L203.83955 246.06975L203.88445 246.05034L227.63243 235.78334L307.04675 201.45L307.09164 201.43059L307.04675 201.45L386.46106 167.11667L386.50595 167.09726L465.87537 132.78334L465.92026 132.76393L528.5 105.70872" fill-rule="nonzero"/><path stroke="#4285f4" stroke-width="2.0" stroke-linecap="butt" clip-path="url(#id_0)" d="M0 334.19608L528.5 105.70872" fill-rule="nonzero"/><path stroke="#ea4335" stroke-width="2.0" stroke-linecap="butt" clip-path="url(#id_0)" d="M74.55 235.78334L148.21811 235.78334L203.83955 235.78334L203.88445 201.45L227.63243 201.45L307.04675 201.45L307.09164 167.11667L307.04675 167.11667L386.46106 167.11667L386.50595 132.78334L465.87537 132.78334L465.92026 98.45L528.5 98.45" fill-rule="nonzero"/><path fill="#000000" fill-opacity="0.0" clip-path="url(#id_0)" d="M77.55 301.96573C77.55 303.6226 76.206856 304.96573 74.55 304.96573C72.89314 304.96573 71.55 303.6226 71.55 301.96573C71.55 300.30887 72.89314 298.96573 74.55 298.96573C76.206856 298.96573 77.55 300.30887 77.55 301.96573Z" fill-rule="nonzero"/><path fill="#000000" fill-opacity="0.0" clip-path="url(#id_0)" d="M151.21811 270.11667C151.21811 271.77353 149.87497 273.11667 148.21811 273.11667C146.56126 273.11667 145.21811 271.77353 145.21811 270.11667C145.21811 268.4598 146.56126 267.11667 148.21811 267.11667C149.87497 267.11667 151.21811 268.4598 151.21811 270.11667Z" fill-rule="nonzero"/><path fill="#000000" fill-opacity="0.0" clip-path="url(#id_0)" d="M206.83955 246.06975C206.83955 247.72661 205.49641 249.06975 203.83955 249.06975C202.18271 249.06975 200.83955 247.72661 200.83955 246.06975C200.83955 244.41289 202.18271 243.06975 203.83955 243.06975C205.49641 243.06975 206.83955 244.41289 206.83955 246.06975Z" fill-rule="nonzero"/><path fill="#000000" fill-opacity="0.0" clip-path="url(#id_0)" d="M206.88445 246.05034C206.88445 247.7072 205.5413 249.05034 203.88445 249.05034C202.2276 249.05034 200.88445 247.7072 200.88445 246.05034C200.88445 244.39348 202.2276 243.05034 203.88445 243.05034C205.5413 243.05034 206.88445 244.39348 206.88445 246.05034Z" fill-rule="nonzero"/><path fill="#000000" fill-opacity="0.0" clip-path="url(#id_0)" d="M230.63243 235.78334C230.63243 237.44019 229.28928 238.78334 227.63243 238.78334C225.97557 238.78334 224.63243 237.44019 224.63243 235.78334C224.63243 234.12648 225.97557 232.78334 227.63243 232.78334C229.28928 232.78334 230.63243 234.12648 230.63243 235.78334Z" fill-rule="nonzero"/><path fill="#000000" fill-opacity="0.0" clip-path="url(#id_0)" d="M310.04675 201.45C310.04675 203.10686 308.70358 204.45 307.04675 204.45C305.3899 204.45 304.04675 203.10686 304.04675 201.45C304.04675 199.79315 305.3899 198.45 307.04675 198.45C308.70358 198.45 310.04675 199.79315 310.04675 201.45Z" fill-rule="nonzero"/><path fill="#000000" fill-opacity="0.0" clip-path="url(#id_0)" d="M310.09164 201.43059C310.09164 203.08745 308.74847 204.43059 307.09164 204.43059C305.43478 204.43059 304.09164 203.08745 304.09164 201.43059C304.09164 199.77374 305.43478 198.43059 307.09164 198.43059C308.74847 198.43059 310.09164 199.77374 310.09164 201.43059Z" fill-rule="nonzero"/><path fill="#000000" fill-opacity="0.0" clip-path="url(#id_0)" d="M310.04675 201.45C310.04675 203.10686 308.70358 204.45 307.04675 204.45C305.3899 204.45 304.04675 203.10686 304.04675 201.45C304.04675 199.79315 305.3899 198.45 307.04675 198.45C308.70358 198.45 310.04675 199.79315 310.04675 201.45Z" fill-rule="nonzero"/><path fill="#000000" fill-opacity="0.0" clip-path="url(#id_0)" d="M389.46106 167.11667C389.46106 168.77351 388.11792 170.11667 386.46106 170.11667C384.8042 170.11667 383.46106 168.77351 383.46106 167.11667C383.46106 165.45981 384.8042 164.11667 386.46106 164.11667C388.11792 164.11667 389.46106 165.45981 389.46106 167.11667Z" fill-rule="nonzero"/><path fill="#000000" fill-opacity="0.0" clip-path="url(#id_0)" d="M389.50595 167.09726C389.50595 168.75412 388.1628 170.09726 386.50595 170.09726C384.8491 170.09726 383.50595 168.75412 383.50595 167.09726C383.50595 165.4404 384.8491 164.09726 386.50595 164.09726C388.1628 164.09726 389.50595 165.4404 389.50595 167.09726Z" fill-rule="nonzero"/><path fill="#000000" fill-opacity="0.0" clip-path="url(#id_0)" d="M468.87537 132.78334C468.87537 134.44019 467.53223 135.78334 465.87537 135.78334C464.2185 135.78334 462.87537 134.44019 462.87537 132.78334C462.87537 131.12648 464.2185 129.78334 465.87537 129.78334C467.53223 129.78334 468.87537 131.12648 468.87537 132.78334Z" fill-rule="nonzero"/><path fill="#000000" fill-opacity="0.0" clip-path="url(#id_0)" d="M468.92026 132.76393C468.92026 134.42078 467.57712 135.76393 465.92026 135.76393C464.2634 135.76393 462.92026 134.42078 462.92026 132.76393C462.92026 131.10707 464.2634 129.76393 465.92026 129.76393C467.57712 129.76393 468.92026 131.10707 468.92026 132.76393Z" fill-rule="nonzero"/><path fill="#000000" fill-opacity="0.0" clip-path="url(#id_0)" d="M531.5 105.70872C531.5 107.36557 530.15686 108.70872 528.5 108.70872C526.84314 108.70872 525.5 107.36557 525.5 105.70872C525.5 104.05186 526.84314 102.70872 528.5 102.70872C530.15686 102.70872 531.5 104.05186 531.5 105.70872Z" fill-rule="nonzero"/><path fill="#000000" fill-opacity="0.0" clip-path="url(#id_0)" d="M77.55 235.78334C77.55 237.44019 76.206856 238.78334 74.55 238.78334C72.89314 238.78334 71.55 237.44019 71.55 235.78334C71.55 234.12648 72.89314 232.78334 74.55 232.78334C76.206856 232.78334 77.55 234.12648 77.55 235.78334Z" fill-rule="nonzero"/><path fill="#000000" fill-opacity="0.0" clip-path="url(#id_0)" d="M151.21811 235.78334C151.21811 237.44019 149.87497 238.78334 148.21811 238.78334C146.56126 238.78334 145.21811 237.44019 145.21811 235.78334C145.21811 234.12648 146.56126 232.78334 148.21811 232.78334C149.87497 232.78334 151.21811 234.12648 151.21811 235.78334Z" fill-rule="nonzero"/><path fill="#000000" fill-opacity="0.0" clip-path="url(#id_0)" d="M206.83955 235.78334C206.83955 237.44019 205.49641 238.78334 203.83955 238.78334C202.18271 238.78334 200.83955 237.44019 200.83955 235.78334C200.83955 234.12648 202.18271 232.78334 203.83955 232.78334C205.49641 232.78334 206.83955 234.12648 206.83955 235.78334Z" fill-rule="nonzero"/><path fill="#000000" fill-opacity="0.0" clip-path="url(#id_0)" d="M206.88445 201.45C206.88445 203.10686 205.5413 204.45 203.88445 204.45C202.2276 204.45 200.88445 203.10686 200.88445 201.45C200.88445 199.79315 202.2276 198.45 203.88445 198.45C205.5413 198.45 206.88445 199.79315 206.88445 201.45Z" fill-rule="nonzero"/><path fill="#000000" fill-opacity="0.0" clip-path="url(#id_0)" d="M230.63243 201.45C230.63243 203.10686 229.28928 204.45 227.63243 204.45C225.97557 204.45 224.63243 203.10686 224.63243 201.45C224.63243 199.79315 225.97557 198.45 227.63243 198.45C229.28928 198.45 230.63243 199.79315 230.63243 201.45Z" fill-rule="nonzero"/><path fill="#000000" fill-opacity="0.0" clip-path="url(#id_0)" d="M310.04675 201.45C310.04675 203.10686 308.70358 204.45 307.04675 204.45C305.3899 204.45 304.04675 203.10686 304.04675 201.45C304.04675 199.79315 305.3899 198.45 307.04675 198.45C308.70358 198.45 310.04675 199.79315 310.04675 201.45Z" fill-rule="nonzero"/><path fill="#000000" fill-opacity="0.0" clip-path="url(#id_0)" d="M310.09164 167.11667C310.09164 168.77351 308.74847 170.11667 307.09164 170.11667C305.43478 170.11667 304.09164 168.77351 304.09164 167.11667C304.09164 165.45981 305.43478 164.11667 307.09164 164.11667C308.74847 164.11667 310.09164 165.45981 310.09164 167.11667Z" fill-rule="nonzero"/><path fill="#000000" fill-opacity="0.0" clip-path="url(#id_0)" d="M310.04675 167.11667C310.04675 168.77351 308.70358 170.11667 307.04675 170.11667C305.3899 170.11667 304.04675 168.77351 304.04675 167.11667C304.04675 165.45981 305.3899 164.11667 307.04675 164.11667C308.70358 164.11667 310.04675 165.45981 310.04675 167.11667Z" fill-rule="nonzero"/><path fill="#000000" fill-opacity="0.0" clip-path="url(#id_0)" d="M389.46106 167.11667C389.46106 168.77351 388.11792 170.11667 386.46106 170.11667C384.8042 170.11667 383.46106 168.77351 383.46106 167.11667C383.46106 165.45981 384.8042 164.11667 386.46106 164.11667C388.11792 164.11667 389.46106 165.45981 389.46106 167.11667Z" fill-rule="nonzero"/><path fill="#000000" fill-opacity="0.0" clip-path="url(#id_0)" d="M389.50595 132.78334C389.50595 134.44019 388.1628 135.78334 386.50595 135.78334C384.8491 135.78334 383.50595 134.44019 383.50595 132.78334C383.50595 131.12648 384.8491 129.78334 386.50595 129.78334C388.1628 129.78334 389.50595 131.12648 389.50595 132.78334Z" fill-rule="nonzero"/><path fill="#000000" fill-opacity="0.0" clip-path="url(#id_0)" d="M468.87537 132.78334C468.87537 134.44019 467.53223 135.78334 465.87537 135.78334C464.2185 135.78334 462.87537 134.44019 462.87537 132.78334C462.87537 131.12648 464.2185 129.78334 465.87537 129.78334C467.53223 129.78334 468.87537 131.12648 468.87537 132.78334Z" fill-rule="nonzero"/><path fill="#000000" fill-opacity="0.0" clip-path="url(#id_0)" d="M468.92026 98.45C468.92026 100.10686 467.57712 101.45 465.92026 101.45C464.2634 101.45 462.92026 100.10686 462.92026 98.45C462.92026 96.793144 464.2634 95.45 465.92026 95.45C467.57712 95.45 468.92026 96.793144 468.92026 98.45Z" fill-rule="nonzero"/><path fill="#000000" fill-opacity="0.0" clip-path="url(#id_0)" d="M531.5 98.45C531.5 100.10686 530.15686 101.45 528.5 101.45C526.84314 101.45 525.5 100.10686 525.5 98.45C525.5 96.793144 526.84314 95.45 528.5 95.45C530.15686 95.45 531.5 96.793144 531.5 98.45Z" fill-rule="nonzero"/><path fill="#000000" d="M253.91562 351.2955L253.91562 342.70175L255.63437 342.70175L257.66562 348.77988Q257.94687 349.63925 258.07187 350.06113Q258.2125 349.59238 258.525 348.68613L260.5875 342.70175L262.11874 342.70175L262.11874 351.2955L261.025 351.2955L261.025 344.108L258.525 351.2955L257.49374 351.2955L255.00937 343.983L255.00937 351.2955L253.91562 351.2955ZM268.07187 349.2955L269.16562 349.4205Q268.91562 350.37363 268.2125 350.90488Q267.50937 351.43613 266.43124 351.43613Q265.07187 351.43613 264.25937 350.59238Q263.4625 349.74863 263.4625 348.233Q263.4625 346.6705 264.275 345.81113Q265.0875 344.93613 266.36874 344.93613Q267.61874 344.93613 268.4 345.77988Q269.19687 346.62363 269.19687 348.1705Q269.19687 348.26425 269.19687 348.45175L264.55624 348.45175Q264.61874 349.483 265.13437 350.02988Q265.65 350.56113 266.43124 350.56113Q267.00937 350.56113 267.41562 350.26425Q267.8375 349.95175 268.07187 349.2955ZM264.61874 347.59238L268.0875 347.59238Q268.025 346.7955 267.69687 346.40488Q267.18124 345.7955 266.38437 345.7955Q265.65 345.7955 265.15 346.27988Q264.66562 346.76425 264.61874 347.59238ZM270.82187 351.2955L270.82187 345.07675L271.75937 345.07675L271.75937 345.95175Q272.05624 345.483 272.54062 345.21738Q273.025 344.93613 273.65 344.93613Q274.3375 344.93613 274.775 345.21738Q275.22812 345.49863 275.4 346.01425Q276.15 344.93613 277.32187 344.93613Q278.25937 344.93613 278.74374 345.45175Q279.24374 345.95175 279.24374 347.02988L279.24374 351.2955L278.19687 351.2955L278.19687 347.37363Q278.19687 346.74863 278.0875 346.46738Q277.99374 346.18613 277.72812 346.01425Q277.4625 345.84238 277.0875 345.84238Q276.43124 345.84238 275.99374 346.27988Q275.57187 346.71738 275.57187 347.68613L275.57187 351.2955L274.50937 351.2955L274.50937 347.24863Q274.50937 346.5455 274.24374 346.20175Q273.99374 345.84238 273.41562 345.84238Q272.9625 345.84238 272.5875 346.07675Q272.2125 346.31113 272.04062 346.76425Q271.86874 347.21738 271.86874 348.06113L271.86874 351.2955L270.82187 351.2955ZM280.43124 348.18613Q280.43124 346.45175 281.38437 345.62363Q282.18124 344.93613 283.3375 344.93613Q284.61874 344.93613 285.43124 345.77988Q286.25937 346.608 286.25937 348.09238Q286.25937 349.2955 285.9 349.983Q285.54062 350.6705 284.8375 351.06113Q284.15 351.43613 283.3375 351.43613Q282.04062 351.43613 281.22812 350.608Q280.43124 349.76425 280.43124 348.18613ZM281.50937 348.18613Q281.50937 349.37363 282.025 349.96738Q282.55624 350.56113 283.3375 350.56113Q284.13437 350.56113 284.65 349.96738Q285.16562 349.37363 285.16562 348.15488Q285.16562 346.99863 284.63437 346.40488Q284.11874 345.81113 283.3375 345.81113Q282.55624 345.81113 282.025 346.40488Q281.50937 346.983 281.50937 348.18613ZM287.80624 351.2955L287.80624 345.07675L288.75937 345.07675L288.75937 346.01425Q289.11874 345.358 289.41562 345.15488Q289.72812 344.93613 290.10312 344.93613Q290.63437 344.93613 291.18124 345.26425L290.82187 346.24863Q290.43124 346.01425 290.05624 346.01425Q289.69687 346.01425 289.41562 346.233Q289.15 346.43613 289.04062 346.81113Q288.85312 347.37363 288.85312 348.02988L288.85312 351.2955L287.80624 351.2955ZM291.775 353.68613L291.65 352.70175Q291.99374 352.7955 292.25937 352.7955Q292.60312 352.7955 292.80624 352.6705Q293.025 352.56113 293.16562 352.358Q293.25937 352.18613 293.49374 351.56113Q293.50937 351.483 293.5875 351.31113L291.2125 345.07675L292.35312 345.07675L293.65 348.6705Q293.9 349.358 294.10312 350.12363Q294.29062 349.38925 294.54062 348.70175L295.86874 345.07675L296.91562 345.07675L294.55624 351.40488Q294.16562 352.4205 293.9625 352.81113Q293.68124 353.34238 293.30624 353.57675Q292.94687 353.82675 292.44687 353.82675Q292.15 353.82675 291.775 353.68613ZM300.57187 348.52988L301.63437 348.43613Q301.7125 349.09238 301.99374 349.49863Q302.275 349.90488 302.85312 350.1705Q303.44687 350.4205 304.18124 350.4205Q304.82187 350.4205 305.32187 350.233Q305.82187 350.02988 306.05624 349.70175Q306.30624 349.358 306.30624 348.96738Q306.30624 348.56113 306.07187 348.26425Q305.8375 347.95175 305.30624 347.74863Q304.94687 347.608 303.75937 347.32675Q302.5875 347.0455 302.11874 346.7955Q301.49374 346.46738 301.19687 345.99863Q300.9 345.51425 300.9 344.9205Q300.9 344.27988 301.25937 343.71738Q301.63437 343.13925 302.3375 342.858Q303.05624 342.56113 303.91562 342.56113Q304.86874 342.56113 305.60312 342.87363Q306.3375 343.1705 306.72812 343.77988Q307.11874 344.37363 307.15 345.12363L306.05624 345.20175Q305.9625 344.38925 305.44687 343.983Q304.94687 343.56113 303.9625 343.56113Q302.93124 343.56113 302.4625 343.93613Q301.99374 344.31113 301.99374 344.84238Q301.99374 345.31113 302.32187 345.608Q302.65 345.90488 304.025 346.21738Q305.41562 346.52988 305.93124 346.76425Q306.68124 347.12363 307.04062 347.65488Q307.4 348.1705 307.4 348.87363Q307.4 349.56113 307.00937 350.1705Q306.61874 350.76425 305.88437 351.108Q305.15 351.43613 304.22812 351.43613Q303.05624 351.43613 302.25937 351.108Q301.47812 350.76425 301.025 350.07675Q300.5875 349.38925 300.57187 348.52988ZM308.82187 343.9205L308.82187 342.70175L309.88437 342.70175L309.88437 343.9205L308.82187 343.9205ZM308.82187 351.2955L308.82187 345.07675L309.88437 345.07675L309.88437 351.2955L308.82187 351.2955ZM311.25937 351.2955L311.25937 350.43613L315.22812 345.88925Q314.54062 345.9205 314.025 345.9205L311.49374 345.9205L311.49374 345.07675L316.5875 345.07675L316.5875 345.76425L313.2125 349.71738L312.55624 350.43613Q313.275 350.38925 313.88437 350.38925L316.775 350.38925L316.775 351.2955L311.25937 351.2955ZM322.07187 349.2955L323.16562 349.4205Q322.91562 350.37363 322.2125 350.90488Q321.50937 351.43613 320.43124 351.43613Q319.07187 351.43613 318.25937 350.59238Q317.4625 349.74863 317.4625 348.233Q317.4625 346.6705 318.275 345.81113Q319.0875 344.93613 320.36874 344.93613Q321.61874 344.93613 322.4 345.77988Q323.19687 346.62363 323.19687 348.1705Q323.19687 348.26425 323.19687 348.45175L318.55624 348.45175Q318.61874 349.483 319.13437 350.02988Q319.65 350.56113 320.43124 350.56113Q321.00937 350.56113 321.41562 350.26425Q321.8375 349.95175 322.07187 349.2955ZM318.61874 347.59238L322.0875 347.59238Q322.025 346.7955 321.69687 346.40488Q321.18124 345.7955 320.38437 345.7955Q319.65 345.7955 319.15 346.27988Q318.66562 346.76425 318.61874 347.59238ZM326.8375 353.82675Q325.9625 352.71738 325.35312 351.24863Q324.75937 349.76425 324.75937 348.18613Q324.75937 346.7955 325.19687 345.51425Q325.72812 344.02988 326.8375 342.56113L327.5875 342.56113Q326.88437 343.77988 326.65 344.2955Q326.29062 345.108 326.0875 345.983Q325.8375 347.07675 325.8375 348.18613Q325.8375 351.01425 327.5875 353.82675L326.8375 353.82675ZM328.91562 351.2955L328.91562 342.70175L330.63437 342.70175L332.66562 348.77988Q332.94687 349.63925 333.07187 350.06113Q333.2125 349.59238 333.525 348.68613L335.5875 342.70175L337.11874 342.70175L337.11874 351.2955L336.025 351.2955L336.025 344.108L333.525 351.2955L332.49374 351.2955L330.00937 343.983L330.00937 351.2955L328.91562 351.2955ZM338.9 351.2955L338.9 342.70175L342.13437 342.70175Q343.11874 342.70175 343.7125 342.96738Q344.30624 343.233 344.63437 343.77988Q344.97812 344.31113 344.97812 344.90488Q344.97812 345.45175 344.68124 345.93613Q344.38437 346.4205 343.775 346.71738Q344.55624 346.95175 344.9625 347.51425Q345.38437 348.06113 345.38437 348.81113Q345.38437 349.40488 345.13437 349.93613Q344.88437 350.45175 344.50937 350.733Q344.13437 351.01425 343.55624 351.15488Q342.99374 351.2955 342.18124 351.2955L338.9 351.2955ZM340.04062 346.31113L341.9 346.31113Q342.65 346.31113 342.97812 346.21738Q343.41562 346.09238 343.63437 345.7955Q343.85312 345.483 343.85312 345.02988Q343.85312 344.608 343.65 344.27988Q343.44687 343.95175 343.05624 343.84238Q342.68124 343.71738 341.75937 343.71738L340.04062 343.71738L340.04062 346.31113ZM340.04062 350.27988L342.18124 350.27988Q342.72812 350.27988 342.94687 350.233Q343.35312 350.1705 343.60312 350.01425Q343.86874 349.84238 344.04062 349.52988Q344.2125 349.21738 344.2125 348.81113Q344.2125 348.32675 343.9625 347.96738Q343.72812 347.608 343.29062 347.46738Q342.85312 347.32675 342.025 347.32675L340.04062 347.32675L340.04062 350.27988ZM347.50937 353.82675L346.75937 353.82675Q348.50937 351.01425 348.50937 348.18613Q348.50937 347.09238 348.25937 345.99863Q348.05624 345.12363 347.69687 344.31113Q347.4625 343.7955 346.75937 342.56113L347.50937 342.56113Q348.60312 344.02988 349.13437 345.51425Q349.5875 346.7955 349.5875 348.18613Q349.5875 349.76425 348.97812 351.24863Q348.36874 352.71738 347.50937 353.82675Z" fill-rule="nonzero"/><path fill="#000000" d="M28.832386 217.00334L22.613636 219.36272L22.613636 218.25334L26.332386 216.90959Q26.941761 216.70647 27.582386 216.51897Q27.098011 216.37834 26.410511 216.12834L22.613636 214.73772L22.613636 213.65959L28.832386 216.01897L28.832386 217.00334ZM25.816761 206.45647L26.113636 205.33147Q27.504261 205.69084 28.238636 206.61272Q28.973011 207.53459 28.973011 208.87834Q28.973011 210.26897 28.410511 211.14397Q27.848011 212.01897 26.785511 212.47209Q25.707386 212.92522 24.473011 212.92522Q23.129261 212.92522 22.129261 212.40959Q21.129261 211.89397 20.613636 210.95647Q20.098011 210.00334 20.098011 208.86272Q20.098011 207.58147 20.754261 206.70647Q21.410511 205.81584 22.598011 205.47209L22.863636 206.59709Q21.926136 206.89397 21.504261 207.47209Q21.066761 208.03459 21.066761 208.89397Q21.066761 209.87834 21.551136 210.55022Q22.019886 211.20647 22.816761 211.48772Q23.613636 211.75334 24.473011 211.75334Q25.566761 211.75334 26.379261 211.44084Q27.191761 211.11272 27.598011 210.44084Q28.004261 209.76897 28.004261 208.97209Q28.004261 208.01897 27.457386 207.36272Q26.910511 206.69084 25.816761 206.45647ZM28.832386 203.59709L20.238636 203.59709L20.238636 200.34709Q20.238636 199.50334 20.316761 199.05022Q20.426136 198.40959 20.723011 197.98772Q21.019886 197.55022 21.551136 197.30022Q22.082386 197.03459 22.723011 197.03459Q23.816761 197.03459 24.582386 197.73772Q25.332386 198.42522 25.332386 200.25334L25.332386 202.45647L28.832386 202.45647L28.832386 203.59709ZM24.332386 202.45647L24.332386 200.23772Q24.332386 199.12834 23.926136 198.67522Q23.504261 198.20647 22.754261 198.20647Q22.223011 198.20647 21.848011 198.48772Q21.457386 198.75334 21.332386 199.19084Q21.254261 199.48772 21.254261 200.25334L21.254261 202.45647L24.332386 202.45647ZM20.238636 189.95647L20.238636 188.81584L25.207386 188.81584Q26.504261 188.81584 27.269886 189.11272Q28.019886 189.40959 28.504261 190.17522Q28.973011 190.94084 28.973011 192.17522Q28.973011 193.37834 28.566761 194.15959Q28.144886 194.92522 27.363636 195.25334Q26.566761 195.58147 25.207386 195.58147L20.238636 195.58147L20.238636 194.44084L25.191761 194.44084Q26.316761 194.44084 26.848011 194.23772Q27.379261 194.01897 27.676136 193.51897Q27.957386 193.00334 27.957386 192.26897Q27.957386 191.01897 27.394886 190.48772Q26.816761 189.95647 25.191761 189.95647L20.238636 189.95647ZM26.973011 187.14397L26.816761 186.11272Q27.441761 186.01897 27.769886 185.62834Q28.098011 185.22209 28.098011 184.48772Q28.098011 183.76897 27.816761 183.42522Q27.519886 183.06584 27.113636 183.06584Q26.754261 183.06584 26.551136 183.37834Q26.410511 183.59709 26.191761 184.45647Q25.894886 185.61272 25.691761 186.06584Q25.473011 186.50334 25.098011 186.73772Q24.723011 186.97209 24.254261 186.97209Q23.848011 186.97209 23.488636 186.78459Q23.129261 186.59709 22.894886 186.26897Q22.723011 186.01897 22.598011 185.59709Q22.473011 185.17522 22.473011 184.67522Q22.473011 183.95647 22.691761 183.40959Q22.894886 182.84709 23.254261 182.58147Q23.613636 182.31584 24.207386 182.22209L24.348011 183.25334Q23.879261 183.31584 23.613636 183.65959Q23.332386 183.98772 23.332386 184.61272Q23.332386 185.33147 23.582386 185.64397Q23.816761 185.95647 24.144886 185.95647Q24.348011 185.95647 24.504261 185.83147Q24.676136 185.69084 24.785511 185.42522Q24.848011 185.26897 25.051136 184.48772Q25.363636 183.36272 25.551136 182.92522Q25.738636 182.48772 26.098011 182.23772Q26.457386 181.98772 27.004261 181.98772Q27.535511 181.98772 28.004261 182.30022Q28.457386 182.59709 28.723011 183.17522Q28.973011 183.75334 28.973011 184.48772Q28.973011 185.70647 28.473011 186.34709Q27.957386 186.97209 26.973011 187.14397Z" fill-rule="nonzero"/><path fill="#000000" d="M62.05 304.21564Q62.05 302.6844 62.3625 301.7625Q62.675 300.825 63.284374 300.325Q63.909374 299.825 64.84688 299.825Q65.53438 299.825 66.05 300.10626Q66.58125 300.3875 66.925 300.91876Q67.26875 301.4344 67.45625 302.1844Q67.64375 302.9344 67.64375 304.21564Q67.64375 305.73126 67.33125 306.65314Q67.03438 307.575 66.40938 308.09064Q65.8 308.59064 64.84688 308.59064Q63.6125 308.59064 62.89375 307.7Q62.05 306.6375 62.05 304.21564ZM63.128124 304.21564Q63.128124 306.325 63.628124 307.02814Q64.12813 307.73126 64.84688 307.73126Q65.58125 307.73126 66.06563 307.02814Q66.56563 306.325 66.56563 304.21564Q66.56563 302.09064 66.06563 301.40314Q65.58125 300.7 64.83125 300.7Q64.1125 300.7 63.675 301.3094Q63.128124 302.09064 63.128124 304.21564Z" fill-rule="nonzero"/><path fill="#000000" d="M66.01875 274.11667L64.97188 274.11667L64.97188 267.39792Q64.58125 267.7573 63.95625 268.1323Q63.346874 268.49167 62.8625 268.66354L62.8625 267.64792Q63.7375 267.22604 64.39375 266.64792Q65.06563 266.05417 65.34688 265.49167L66.01875 265.49167L66.01875 274.11667Z" fill-rule="nonzero"/><path fill="#000000" d="M67.59688 238.76772L67.59688 239.78334L61.909374 239.78334Q61.909374 239.40834 62.034374 239.04897Q62.253124 238.47084 62.721874 237.90834Q63.20625 237.34584 64.1125 236.61147Q65.51875 235.45522 66.00313 234.78334Q66.50313 234.11147 66.50313 233.51772Q66.50313 232.89272 66.05 232.47084Q65.59688 232.03334 64.87813 232.03334Q64.1125 232.03334 63.659374 232.48647Q63.20625 232.93959 63.190624 233.75209L62.1125 233.64272Q62.221874 232.42397 62.940624 231.79897Q63.675 231.15834 64.90938 231.15834Q66.14375 231.15834 66.8625 231.84584Q67.58125 232.53334 67.58125 233.54897Q67.58125 234.06459 67.3625 234.56459Q67.15938 235.04897 66.65938 235.61147Q66.175 236.15834 65.05 237.11147Q64.09688 237.90834 63.815624 238.20522Q63.55 238.48647 63.378124 238.76772L67.59688 238.76772Z" fill-rule="nonzero"/><path fill="#000000" d="M62.05 203.18437L63.1125 203.04375Q63.284374 203.93437 63.721874 204.34062Q64.15938 204.73125 64.78438 204.73125Q65.53438 204.73125 66.05 204.21562Q66.56563 203.7 66.56563 202.93437Q66.56563 202.21562 66.08125 201.74687Q65.6125 201.2625 64.87813 201.2625Q64.58125 201.2625 64.12813 201.3875L64.25313 200.45Q64.3625 200.46562 64.425 200.46562Q65.09688 200.46562 65.62813 200.12187Q66.175 199.7625 66.175 199.02812Q66.175 198.45 65.78438 198.075Q65.39375 197.68437 64.76875 197.68437Q64.15938 197.68437 63.7375 198.075Q63.33125 198.46562 63.221874 199.23125L62.159374 199.04375Q62.346874 197.99687 63.034374 197.41875Q63.721874 196.825 64.7375 196.825Q65.44063 196.825 66.03438 197.1375Q66.62813 197.43437 66.94063 197.95Q67.25313 198.46562 67.25313 199.05937Q67.25313 199.60625 66.95625 200.075Q66.65938 200.52812 66.08125 200.79375Q66.83125 200.96562 67.25313 201.52812Q67.675 202.075 67.675 202.91875Q67.675 204.04375 66.84688 204.825Q66.03438 205.60625 64.78438 205.60625Q63.659374 205.60625 62.909374 204.93437Q62.159374 204.24687 62.05 203.18437Z" fill-rule="nonzero"/><path fill="#000000" d="M65.425 171.11667L65.425 169.05417L61.70625 169.05417L61.70625 168.08542L65.62813 162.52292L66.4875 162.52292L66.4875 168.08542L67.64375 168.08542L67.64375 169.05417L66.4875 169.05417L66.4875 171.11667L65.425 171.11667ZM65.425 168.08542L65.425 164.22604L62.7375 168.08542L65.425 168.08542Z" fill-rule="nonzero"/><path fill="#000000" d="M62.05 134.53334L63.159374 134.43959Q63.284374 135.25209 63.721874 135.65834Q64.175 136.06459 64.81563 136.06459Q65.56563 136.06459 66.09688 135.48647Q66.62813 134.90834 66.62813 133.97084Q66.62813 133.06459 66.1125 132.54897Q65.6125 132.01772 64.78438 132.01772Q64.28438 132.01772 63.8625 132.25209Q63.45625 132.48647 63.221874 132.84584L62.2375 132.72084L63.065624 128.31459L67.34688 128.31459L67.34688 129.31459L63.909374 129.31459L63.45625 131.62709Q64.22188 131.08022 65.06563 131.08022Q66.19063 131.08022 66.95625 131.86147Q67.7375 132.64272 67.7375 133.87709Q67.7375 135.03334 67.06563 135.89272Q66.2375 136.92397 64.81563 136.92397Q63.64375 136.92397 62.89375 136.26772Q62.159374 135.61147 62.05 134.53334Z" fill-rule="nonzero"/><path fill="#000000" d="M67.51875 95.96562L66.47188 96.04375Q66.33125 95.41875 66.08125 95.1375Q65.64375 94.68437 65.01875 94.68437Q64.51875 94.68437 64.12813 94.96562Q63.64375 95.34062 63.346874 96.04375Q63.065624 96.73125 63.05 98.0125Q63.425 97.43437 63.971874 97.15312Q64.53438 96.87187 65.14375 96.87187Q66.19063 96.87187 66.925 97.65312Q67.675 98.43437 67.675 99.65312Q67.675 100.46562 67.31563 101.16875Q66.97188 101.85625 66.3625 102.23125Q65.75313 102.59062 64.9875 102.59062Q63.659374 102.59062 62.83125 101.62187Q62.003124 100.65312 62.003124 98.43437Q62.003124 95.93437 62.925 94.80937Q63.721874 93.825 65.08125 93.825Q66.09688 93.825 66.7375 94.40312Q67.39375 94.96562 67.51875 95.96562ZM63.221874 99.66875Q63.221874 100.21562 63.440624 100.71562Q63.675 101.2 64.08125 101.46562Q64.50313 101.73125 64.97188 101.73125Q65.62813 101.73125 66.1125 101.2Q66.59688 100.65312 66.59688 99.73125Q66.59688 98.84062 66.1125 98.325Q65.64375 97.80937 64.925 97.80937Q64.20625 97.80937 63.70625 98.325Q63.221874 98.84062 63.221874 99.66875Z" fill-rule="nonzero"/><path fill="#000000" d="M150.63509 320.4344L150.63509 321.45L144.94759 321.45Q144.94759 321.075 145.07259 320.71564Q145.29134 320.1375 145.76009 319.575Q146.24446 319.0125 147.15071 318.27814Q148.55696 317.1219 149.04134 316.45Q149.54134 315.77814 149.54134 315.1844Q149.54134 314.5594 149.08821 314.1375Q148.63509 313.7 147.91634 313.7Q147.15071 313.7 146.69759 314.15314Q146.24446 314.60626 146.22884 315.41876L145.15071 315.3094Q145.26009 314.09064 145.97884 313.46564Q146.71321 312.825 147.94759 312.825Q149.18196 312.825 149.90071 313.5125Q150.61946 314.2 150.61946 315.21564Q150.61946 315.73126 150.40071 316.23126Q150.19759 316.71564 149.69759 317.27814Q149.21321 317.825 148.08821 318.77814Q147.13509 319.575 146.85384 319.8719Q146.58821 320.15314 146.41634 320.4344L150.63509 320.4344ZM152.08821 317.21564Q152.08821 315.6844 152.40071 314.7625Q152.71321 313.825 153.32259 313.325Q153.94759 312.825 154.88509 312.825Q155.57259 312.825 156.08821 313.10626Q156.61946 313.3875 156.96321 313.91876Q157.30696 314.4344 157.49446 315.1844Q157.68196 315.9344 157.68196 317.21564Q157.68196 318.73126 157.36946 319.65314Q157.07259 320.575 156.44759 321.09064Q155.83821 321.59064 154.88509 321.59064Q153.65071 321.59064 152.93196 320.7Q152.08821 319.6375 152.08821 317.21564ZM153.16634 317.21564Q153.16634 319.325 153.66634 320.02814Q154.16634 320.73126 154.88509 320.73126Q155.61946 320.73126 156.10384 320.02814Q156.60384 319.325 156.60384 317.21564Q156.60384 315.09064 156.10384 314.40314Q155.61946 313.7 154.86946 313.7Q154.15071 313.7 153.71321 314.3094Q153.16634 315.09064 153.16634 317.21564ZM159.08821 317.21564Q159.08821 315.6844 159.40071 314.7625Q159.71321 313.825 160.32259 313.325Q160.94759 312.825 161.88509 312.825Q162.57259 312.825 163.08821 313.10626Q163.61946 313.3875 163.96321 313.91876Q164.30696 314.4344 164.49446 315.1844Q164.68196 315.9344 164.68196 317.21564Q164.68196 318.73126 164.36946 319.65314Q164.07259 320.575 163.44759 321.09064Q162.83821 321.59064 161.88509 321.59064Q160.65071 321.59064 159.93196 320.7Q159.08821 319.6375 159.08821 317.21564ZM160.16634 317.21564Q160.16634 319.325 160.66634 320.02814Q161.16634 320.73126 161.88509 320.73126Q162.61946 320.73126 163.10384 320.02814Q163.60384 319.325 163.60384 317.21564Q163.60384 315.09064 163.10384 314.40314Q162.61946 313.7 161.86946 313.7Q161.15071 313.7 160.71321 314.3094Q160.16634 315.09064 160.16634 317.21564ZM166.08821 317.21564Q166.08821 315.6844 166.40071 314.7625Q166.71321 313.825 167.32259 313.325Q167.94759 312.825 168.88509 312.825Q169.57259 312.825 170.08821 313.10626Q170.61946 313.3875 170.96321 313.91876Q171.30696 314.4344 171.49446 315.1844Q171.68196 315.9344 171.68196 317.21564Q171.68196 318.73126 171.36946 319.65314Q171.07259 320.575 170.44759 321.09064Q169.83821 321.59064 168.88509 321.59064Q167.65071 321.59064 166.93196 320.7Q166.08821 319.6375 166.08821 317.21564ZM167.16634 317.21564Q167.16634 319.325 167.66634 320.02814Q168.16634 320.73126 168.88509 320.73126Q169.61946 320.73126 170.10384 320.02814Q170.60384 319.325 170.60384 317.21564Q170.60384 315.09064 170.10384 314.40314Q169.61946 313.7 168.86946 313.7Q168.15071 313.7 167.71321 314.3094Q167.16634 315.09064 167.16634 317.21564Z" fill-rule="nonzero"/><path fill="#000000" d="M238.24762 321.45L238.24762 319.3875L234.52887 319.3875L234.52887 318.41876L238.45074 312.85626L239.31012 312.85626L239.31012 318.41876L240.46637 318.41876L240.46637 319.3875L239.31012 319.3875L239.31012 321.45L238.24762 321.45ZM238.24762 318.41876L238.24762 314.5594L235.56012 318.41876L238.24762 318.41876ZM241.87262 317.21564Q241.87262 315.6844 242.18512 314.7625Q242.49762 313.825 243.107 313.325Q243.732 312.825 244.6695 312.825Q245.357 312.825 245.87262 313.10626Q246.40387 313.3875 246.74762 313.91876Q247.09137 314.4344 247.27887 315.1844Q247.46637 315.9344 247.46637 317.21564Q247.46637 318.73126 247.15387 319.65314Q246.857 320.575 246.232 321.09064Q245.62262 321.59064 244.6695 321.59064Q243.43512 321.59064 242.71637 320.7Q241.87262 319.6375 241.87262 317.21564ZM242.95074 317.21564Q242.95074 319.325 243.45074 320.02814Q243.95074 320.73126 244.6695 320.73126Q245.40387 320.73126 245.88824 320.02814Q246.38824 319.325 246.38824 317.21564Q246.38824 315.09064 245.88824 314.40314Q245.40387 313.7 244.65387 313.7Q243.93512 313.7 243.49762 314.3094Q242.95074 315.09064 242.95074 317.21564ZM248.87262 317.21564Q248.87262 315.6844 249.18512 314.7625Q249.49762 313.825 250.107 313.325Q250.732 312.825 251.6695 312.825Q252.357 312.825 252.87262 313.10626Q253.40387 313.3875 253.74762 313.91876Q254.09137 314.4344 254.27887 315.1844Q254.46637 315.9344 254.46637 317.21564Q254.46637 318.73126 254.15387 319.65314Q253.857 320.575 253.232 321.09064Q252.62262 321.59064 251.6695 321.59064Q250.43512 321.59064 249.71637 320.7Q248.87262 319.6375 248.87262 317.21564ZM249.95074 317.21564Q249.95074 319.325 250.45074 320.02814Q250.95074 320.73126 251.6695 320.73126Q252.40387 320.73126 252.88824 320.02814Q253.38824 319.325 253.38824 317.21564Q253.38824 315.09064 252.88824 314.40314Q252.40387 313.7 251.65387 313.7Q250.93512 313.7 250.49762 314.3094Q249.95074 315.09064 249.95074 317.21564ZM255.87262 317.21564Q255.87262 315.6844 256.18512 314.7625Q256.49762 313.825 257.107 313.325Q257.732 312.825 258.6695 312.825Q259.357 312.825 259.87262 313.10626Q260.40387 313.3875 260.74762 313.91876Q261.09137 314.4344 261.27887 315.1844Q261.46637 315.9344 261.46637 317.21564Q261.46637 318.73126 261.15387 319.65314Q260.857 320.575 260.232 321.09064Q259.62262 321.59064 258.6695 321.59064Q257.43512 321.59064 256.71637 320.7Q255.87262 319.6375 255.87262 317.21564ZM256.95074 317.21564Q256.95074 319.325 257.45074 320.02814Q257.95074 320.73126 258.6695 320.73126Q259.40387 320.73126 259.88824 320.02814Q260.38824 319.325 260.38824 317.21564Q260.38824 315.09064 259.88824 314.40314Q259.40387 313.7 258.65387 313.7Q257.93512 313.7 257.49762 314.3094Q256.95074 315.09064 256.95074 317.21564Z" fill-rule="nonzero"/><path fill="#000000" d="M330.1258 314.96564L329.07892 315.04376Q328.9383 314.41876 328.6883 314.1375Q328.2508 313.6844 327.6258 313.6844Q327.1258 313.6844 326.73517 313.96564Q326.2508 314.34064 325.95392 315.04376Q325.67267 315.73126 325.65704 317.0125Q326.03204 316.4344 326.57892 316.15314Q327.14142 315.8719 327.7508 315.8719Q328.79767 315.8719 329.53204 316.65314Q330.28204 317.4344 330.28204 318.65314Q330.28204 319.46564 329.92267 320.16876Q329.57892 320.85626 328.96954 321.23126Q328.36017 321.59064 327.59454 321.59064Q326.26642 321.59064 325.4383 320.6219Q324.61017 319.65314 324.61017 317.4344Q324.61017 314.9344 325.53204 313.8094Q326.32892 312.825 327.6883 312.825Q328.70392 312.825 329.34454 313.40314Q330.0008 313.96564 330.1258 314.96564ZM325.82892 318.66876Q325.82892 319.21564 326.04767 319.71564Q326.28204 320.2 326.6883 320.46564Q327.11017 320.73126 327.57892 320.73126Q328.23517 320.73126 328.71954 320.2Q329.20392 319.65314 329.20392 318.73126Q329.20392 317.84064 328.71954 317.325Q328.2508 316.8094 327.53204 316.8094Q326.8133 316.8094 326.3133 317.325Q325.82892 317.84064 325.82892 318.66876ZM331.65704 317.21564Q331.65704 315.6844 331.96954 314.7625Q332.28204 313.825 332.89142 313.325Q333.51642 312.825 334.45392 312.825Q335.14142 312.825 335.65704 313.10626Q336.1883 313.3875 336.53204 313.91876Q336.8758 314.4344 337.0633 315.1844Q337.2508 315.9344 337.2508 317.21564Q337.2508 318.73126 336.9383 319.65314Q336.64142 320.575 336.01642 321.09064Q335.40704 321.59064 334.45392 321.59064Q333.21954 321.59064 332.5008 320.7Q331.65704 319.6375 331.65704 317.21564ZM332.73517 317.21564Q332.73517 319.325 333.23517 320.02814Q333.73517 320.73126 334.45392 320.73126Q335.1883 320.73126 335.67267 320.02814Q336.17267 319.325 336.17267 317.21564Q336.17267 315.09064 335.67267 314.40314Q335.1883 313.7 334.4383 313.7Q333.71954 313.7 333.28204 314.3094Q332.73517 315.09064 332.73517 317.21564ZM338.65704 317.21564Q338.65704 315.6844 338.96954 314.7625Q339.28204 313.825 339.89142 313.325Q340.51642 312.825 341.45392 312.825Q342.14142 312.825 342.65704 313.10626Q343.1883 313.3875 343.53204 313.91876Q343.8758 314.4344 344.0633 315.1844Q344.2508 315.9344 344.2508 317.21564Q344.2508 318.73126 343.9383 319.65314Q343.64142 320.575 343.01642 321.09064Q342.40704 321.59064 341.45392 321.59064Q340.21954 321.59064 339.5008 320.7Q338.65704 319.6375 338.65704 317.21564ZM339.73517 317.21564Q339.73517 319.325 340.23517 320.02814Q340.73517 320.73126 341.45392 320.73126Q342.1883 320.73126 342.67267 320.02814Q343.17267 319.325 343.17267 317.21564Q343.17267 315.09064 342.67267 314.40314Q342.1883 313.7 341.4383 313.7Q340.71954 313.7 340.28204 314.3094Q339.73517 315.09064 339.73517 317.21564ZM345.65704 317.21564Q345.65704 315.6844 345.96954 314.7625Q346.28204 313.825 346.89142 313.325Q347.51642 312.825 348.45392 312.825Q349.14142 312.825 349.65704 313.10626Q350.1883 313.3875 350.53204 313.91876Q350.8758 314.4344 351.0633 315.1844Q351.2508 315.9344 351.2508 317.21564Q351.2508 318.73126 350.9383 319.65314Q350.64142 320.575 350.01642 321.09064Q349.40704 321.59064 348.45392 321.59064Q347.21954 321.59064 346.5008 320.7Q345.65704 319.6375 345.65704 317.21564ZM346.73517 317.21564Q346.73517 319.325 347.23517 320.02814Q347.73517 320.73126 348.45392 320.73126Q349.1883 320.73126 349.67267 320.02814Q350.17267 319.325 350.17267 317.21564Q350.17267 315.09064 349.67267 314.40314Q349.1883 313.7 348.4383 313.7Q347.71954 313.7 347.28204 314.3094Q346.73517 315.09064 346.73517 317.21564Z" fill-rule="nonzero"/><path fill="#000000" d="M416.06647 316.79376Q415.41022 316.54376 415.0821 316.10626Q414.7696 315.65314 414.7696 315.04376Q414.7696 314.10626 415.44147 313.46564Q416.12897 312.825 417.23834 312.825Q418.36334 312.825 419.05084 313.48126Q419.73834 314.1375 419.73834 315.075Q419.73834 315.66876 419.42584 316.10626Q419.11334 316.54376 418.47272 316.79376Q419.2696 317.04376 419.67584 317.6219Q420.0821 318.2 420.0821 318.9969Q420.0821 320.09064 419.30084 320.84064Q418.53522 321.59064 417.25397 321.59064Q415.98834 321.59064 415.2071 320.84064Q414.42584 320.09064 414.42584 318.96564Q414.42584 318.1219 414.84772 317.5594Q415.28522 316.9969 416.06647 316.79376ZM415.84772 314.9969Q415.84772 315.60626 416.23834 315.9969Q416.6446 316.3875 417.2696 316.3875Q417.87897 316.3875 418.2696 316.0125Q418.66022 315.6219 418.66022 315.0594Q418.66022 314.48126 418.25397 314.09064Q417.84772 313.6844 417.25397 313.6844Q416.6446 313.6844 416.23834 314.075Q415.84772 314.46564 415.84772 314.9969ZM415.5196 318.96564Q415.5196 319.41876 415.72272 319.84064Q415.94147 320.2625 416.36334 320.4969Q416.78522 320.73126 417.2696 320.73126Q418.0196 320.73126 418.50397 320.2469Q419.00397 319.7625 419.00397 319.0125Q419.00397 318.2469 418.50397 317.7469Q418.00397 317.2469 417.23834 317.2469Q416.48834 317.2469 416.00397 317.7469Q415.5196 318.23126 415.5196 318.96564ZM421.44147 317.21564Q421.44147 315.6844 421.75397 314.7625Q422.06647 313.825 422.67584 313.325Q423.30084 312.825 424.23834 312.825Q424.92584 312.825 425.44147 313.10626Q425.97272 313.3875 426.31647 313.91876Q426.66022 314.4344 426.84772 315.1844Q427.03522 315.9344 427.03522 317.21564Q427.03522 318.73126 426.72272 319.65314Q426.42584 320.575 425.80084 321.09064Q425.19147 321.59064 424.23834 321.59064Q423.00397 321.59064 422.28522 320.7Q421.44147 319.6375 421.44147 317.21564ZM422.5196 317.21564Q422.5196 319.325 423.0196 320.02814Q423.5196 320.73126 424.23834 320.73126Q424.97272 320.73126 425.4571 320.02814Q425.9571 319.325 425.9571 317.21564Q425.9571 315.09064 425.4571 314.40314Q424.97272 313.7 424.22272 313.7Q423.50397 313.7 423.06647 314.3094Q422.5196 315.09064 422.5196 317.21564ZM428.44147 317.21564Q428.44147 315.6844 428.75397 314.7625Q429.06647 313.825 429.67584 313.325Q430.30084 312.825 431.23834 312.825Q431.92584 312.825 432.44147 313.10626Q432.97272 313.3875 433.31647 313.91876Q433.66022 314.4344 433.84772 315.1844Q434.03522 315.9344 434.03522 317.21564Q434.03522 318.73126 433.72272 319.65314Q433.42584 320.575 432.80084 321.09064Q432.19147 321.59064 431.23834 321.59064Q430.00397 321.59064 429.28522 320.7Q428.44147 319.6375 428.44147 317.21564ZM429.5196 317.21564Q429.5196 319.325 430.0196 320.02814Q430.5196 320.73126 431.23834 320.73126Q431.97272 320.73126 432.4571 320.02814Q432.9571 319.325 432.9571 317.21564Q432.9571 315.09064 432.4571 314.40314Q431.97272 313.7 431.22272 313.7Q430.50397 313.7 430.06647 314.3094Q429.5196 315.09064 429.5196 317.21564ZM435.44147 317.21564Q435.44147 315.6844 435.75397 314.7625Q436.06647 313.825 436.67584 313.325Q437.30084 312.825 438.23834 312.825Q438.92584 312.825 439.44147 313.10626Q439.97272 313.3875 440.31647 313.91876Q440.66022 314.4344 440.84772 315.1844Q441.03522 315.9344 441.03522 317.21564Q441.03522 318.73126 440.72272 319.65314Q440.42584 320.575 439.80084 321.09064Q439.19147 321.59064 438.23834 321.59064Q437.00397 321.59064 436.28522 320.7Q435.44147 319.6375 435.44147 317.21564ZM436.5196 317.21564Q436.5196 319.325 437.0196 320.02814Q437.5196 320.73126 438.23834 320.73126Q438.97272 320.73126 439.4571 320.02814Q439.9571 319.325 439.9571 317.21564Q439.9571 315.09064 439.4571 314.40314Q438.97272 313.7 438.22272 313.7Q437.50397 313.7 437.06647 314.3094Q436.5196 315.09064 436.5196 317.21564Z" fill-rule="nonzero"/><path fill="#000000" d="M504.6946 321.45L503.64774 321.45L503.64774 314.73126Q503.2571 315.09064 502.6321 315.46564Q502.02274 315.825 501.53836 315.9969L501.53836 314.98126Q502.41336 314.5594 503.0696 313.98126Q503.7415 313.3875 504.02274 312.825L504.6946 312.825L504.6946 321.45ZM507.72586 317.21564Q507.72586 315.6844 508.03836 314.7625Q508.35086 313.825 508.96024 313.325Q509.58524 312.825 510.52274 312.825Q511.21024 312.825 511.72586 313.10626Q512.2571 313.3875 512.6008 313.91876Q512.9446 314.4344 513.1321 315.1844Q513.3196 315.9344 513.3196 317.21564Q513.3196 318.73126 513.0071 319.65314Q512.7102 320.575 512.0852 321.09064Q511.47586 321.59064 510.52274 321.59064Q509.28836 321.59064 508.5696 320.7Q507.72586 319.6375 507.72586 317.21564ZM508.804 317.21564Q508.804 319.325 509.304 320.02814Q509.804 320.73126 510.52274 320.73126Q511.2571 320.73126 511.7415 320.02814Q512.24146 319.325 512.24146 317.21564Q512.24146 315.09064 511.7415 314.40314Q511.2571 313.7 510.5071 313.7Q509.78836 313.7 509.35086 314.3094Q508.804 315.09064 508.804 317.21564ZM514.7258 317.21564Q514.7258 315.6844 515.0383 314.7625Q515.3508 313.825 515.9602 313.325Q516.5852 312.825 517.5227 312.825Q518.2102 312.825 518.7258 313.10626Q519.2571 313.3875 519.6008 313.91876Q519.9446 314.4344 520.1321 315.1844Q520.3196 315.9344 520.3196 317.21564Q520.3196 318.73126 520.0071 319.65314Q519.7102 320.575 519.0852 321.09064Q518.4758 321.59064 517.5227 321.59064Q516.2883 321.59064 515.5696 320.7Q514.7258 319.6375 514.7258 317.21564ZM515.80396 317.21564Q515.80396 319.325 516.30396 320.02814Q516.80396 320.73126 517.5227 320.73126Q518.2571 320.73126 518.74146 320.02814Q519.24146 319.325 519.24146 317.21564Q519.24146 315.09064 518.74146 314.40314Q518.2571 313.7 517.5071 313.7Q516.7883 313.7 516.3508 314.3094Q515.80396 315.09064 515.80396 317.21564ZM521.7258 317.21564Q521.7258 315.6844 522.0383 314.7625Q522.3508 313.825 522.9602 313.325Q523.5852 312.825 524.5227 312.825Q525.2102 312.825 525.7258 313.10626Q526.2571 313.3875 526.6008 313.91876Q526.9446 314.4344 527.1321 315.1844Q527.3196 315.9344 527.3196 317.21564Q527.3196 318.73126 527.0071 319.65314Q526.7102 320.575 526.0852 321.09064Q525.4758 321.59064 524.5227 321.59064Q523.2883 321.59064 522.5696 320.7Q521.7258 319.6375 521.7258 317.21564ZM522.80396 317.21564Q522.80396 319.325 523.30396 320.02814Q523.80396 320.73126 524.5227 320.73126Q525.2571 320.73126 525.74146 320.02814Q526.24146 319.325 526.24146 317.21564Q526.24146 315.09064 525.74146 314.40314Q525.2571 313.7 524.5071 313.7Q523.7883 313.7 523.3508 314.3094Q522.80396 315.09064 522.80396 317.21564ZM528.7258 317.21564Q528.7258 315.6844 529.0383 314.7625Q529.3508 313.825 529.9602 313.325Q530.5852 312.825 531.5227 312.825Q532.2102 312.825 532.7258 313.10626Q533.2571 313.3875 533.6008 313.91876Q533.9446 314.4344 534.1321 315.1844Q534.3196 315.9344 534.3196 317.21564Q534.3196 318.73126 534.0071 319.65314Q533.7102 320.575 533.0852 321.09064Q532.4758 321.59064 531.5227 321.59064Q530.2883 321.59064 529.5696 320.7Q528.7258 319.6375 528.7258 317.21564ZM529.80396 317.21564Q529.80396 319.325 530.30396 320.02814Q530.80396 320.73126 531.5227 320.73126Q532.2571 320.73126 532.74146 320.02814Q533.24146 319.325 533.24146 317.21564Q533.24146 315.09064 532.74146 314.40314Q532.2571 313.7 531.5071 313.7Q530.7883 313.7 530.3508 314.3094Q529.80396 315.09064 529.80396 317.21564Z" fill-rule="nonzero"/><path stroke="#4285f4" stroke-width="4.0" stroke-linecap="butt" d="M158.1412 60.445835L170.1412 60.445835" fill-rule="nonzero"/><path fill="#1a1a1a" d="M180.65683 64.44583L178.29745 58.22708L179.40683 58.22708L180.75058 61.94583Q180.9537 62.555206 181.1412 63.19583Q181.28183 62.711456 181.53183 62.023956L182.92245 58.22708L184.00058 58.22708L181.6412 64.44583L180.65683 64.44583ZM191.2037 61.430206L192.3287 61.72708Q191.96933 63.117706 191.04745 63.85208Q190.12558 64.58646 188.78183 64.58646Q187.3912 64.58646 186.5162 64.02396Q185.6412 63.461456 185.18808 62.398956Q184.73495 61.32083 184.73495 60.086456Q184.73495 58.742706 185.25058 57.742706Q185.7662 56.742706 186.7037 56.22708Q187.65683 55.711456 188.79745 55.711456Q190.0787 55.711456 190.9537 56.367706Q191.84433 57.023956 192.18808 58.211456L191.06308 58.47708Q190.7662 57.53958 190.18808 57.117706Q189.62558 56.680206 188.7662 56.680206Q187.78183 56.680206 187.10995 57.16458Q186.4537 57.63333 186.17245 58.430206Q185.90683 59.22708 185.90683 60.086456Q185.90683 61.180206 186.21933 61.992706Q186.54745 62.805206 187.21933 63.211456Q187.8912 63.617706 188.68808 63.617706Q189.6412 63.617706 190.29745 63.07083Q190.96933 62.523956 191.2037 61.430206ZM194.06308 64.44583L194.06308 55.85208L197.31308 55.85208Q198.15683 55.85208 198.60995 55.930206Q199.25058 56.03958 199.67245 56.336456Q200.10995 56.63333 200.35995 57.16458Q200.62558 57.69583 200.62558 58.336456Q200.62558 59.430206 199.92245 60.19583Q199.23495 60.94583 197.40683 60.94583L195.2037 60.94583L195.2037 64.44583L194.06308 64.44583ZM195.2037 59.94583L197.42245 59.94583Q198.53183 59.94583 198.98495 59.53958Q199.4537 59.117706 199.4537 58.367706Q199.4537 57.836456 199.17245 57.461456Q198.90683 57.07083 198.46933 56.94583Q198.17245 56.867706 197.40683 56.867706L195.2037 56.867706L195.2037 59.94583ZM207.7037 55.85208L208.84433 55.85208L208.84433 60.82083Q208.84433 62.117706 208.54745 62.88333Q208.25058 63.63333 207.48495 64.11771Q206.71933 64.58646 205.48495 64.58646Q204.28183 64.58646 203.50058 64.18021Q202.73495 63.75833 202.40683 62.97708Q202.0787 62.180206 202.0787 60.82083L202.0787 55.85208L203.21933 55.85208L203.21933 60.805206Q203.21933 61.930206 203.42245 62.461456Q203.6412 62.992706 204.1412 63.28958Q204.65683 63.57083 205.3912 63.57083Q206.6412 63.57083 207.17245 63.00833Q207.7037 62.430206 207.7037 60.805206L207.7037 55.85208ZM220.2037 61.430206L221.3287 61.72708Q220.96933 63.117706 220.04745 63.85208Q219.12558 64.58646 217.78183 64.58646Q216.3912 64.58646 215.5162 64.02396Q214.6412 63.461456 214.18808 62.398956Q213.73495 61.32083 213.73495 60.086456Q213.73495 58.742706 214.25058 57.742706Q214.7662 56.742706 215.7037 56.22708Q216.65683 55.711456 217.79745 55.711456Q219.0787 55.711456 219.9537 56.367706Q220.84433 57.023956 221.18808 58.211456L220.06308 58.47708Q219.7662 57.53958 219.18808 57.117706Q218.62558 56.680206 217.7662 56.680206Q216.78183 56.680206 216.10995 57.16458Q215.4537 57.63333 215.17245 58.430206Q214.90683 59.22708 214.90683 60.086456Q214.90683 61.180206 215.21933 61.992706Q215.54745 62.805206 216.21933 63.211456Q216.8912 63.617706 217.68808 63.617706Q218.6412 63.617706 219.29745 63.07083Q219.96933 62.523956 220.2037 61.430206ZM222.92245 64.44583L222.92245 58.22708L223.87558 58.22708L223.87558 59.16458Q224.23495 58.50833 224.53183 58.305206Q224.84433 58.086456 225.21933 58.086456Q225.75058 58.086456 226.29745 58.41458L225.93808 59.398956Q225.54745 59.16458 225.17245 59.16458Q224.81308 59.16458 224.53183 59.38333Q224.2662 59.586456 224.15683 59.961456Q223.96933 60.523956 223.96933 61.180206L223.96933 64.44583L222.92245 64.44583ZM231.18808 62.44583L232.28183 62.57083Q232.03183 63.523956 231.3287 64.05521Q230.62558 64.58646 229.54745 64.58646Q228.18808 64.58646 227.37558 63.742706Q226.5787 62.898956 226.5787 61.38333Q226.5787 59.82083 227.3912 58.961456Q228.2037 58.086456 229.48495 58.086456Q230.73495 58.086456 231.5162 58.930206Q232.31308 59.773956 232.31308 61.32083Q232.31308 61.41458 232.31308 61.60208L227.67245 61.60208Q227.73495 62.63333 228.25058 63.180206Q228.7662 63.711456 229.54745 63.711456Q230.12558 63.711456 230.53183 63.41458Q230.9537 63.10208 231.18808 62.44583ZM227.73495 60.742706L231.2037 60.742706Q231.1412 59.94583 230.81308 59.555206Q230.29745 58.94583 229.50058 58.94583Q228.7662 58.94583 228.2662 59.430206Q227.78183 59.91458 227.73495 60.742706ZM237.96933 64.44583L237.96933 63.66458Q237.37558 64.58646 236.23495 64.58646Q235.48495 64.58646 234.85995 64.18021Q234.23495 63.75833 233.8912 63.023956Q233.54745 62.28958 233.54745 61.336456Q233.54745 60.41458 233.85995 59.648956Q234.17245 58.88333 234.79745 58.492706Q235.42245 58.086456 236.18808 58.086456Q236.75058 58.086456 237.18808 58.32083Q237.62558 58.555206 237.90683 58.930206L237.90683 55.85208L238.9537 55.85208L238.9537 64.44583L237.96933 64.44583ZM234.6412 61.336456Q234.6412 62.53958 235.1412 63.13333Q235.6412 63.711456 236.3287 63.711456Q237.0162 63.711456 237.50058 63.148956Q237.98495 62.586456 237.98495 61.430206Q237.98495 60.148956 237.48495 59.555206Q237.00058 58.961456 236.28183 58.961456Q235.5787 58.961456 235.10995 59.53958Q234.6412 60.10208 234.6412 61.336456ZM240.93808 57.07083L240.93808 55.85208L242.00058 55.85208L242.00058 57.07083L240.93808 57.07083ZM240.93808 64.44583L240.93808 58.22708L242.00058 58.22708L242.00058 64.44583L240.93808 64.44583ZM246.23495 63.50833L246.3912 64.43021Q245.93808 64.52396 245.59433 64.52396Q245.0162 64.52396 244.7037 64.35208Q244.3912 64.16458 244.25058 63.867706Q244.12558 63.57083 244.12558 62.617706L244.12558 59.03958L243.35995 59.03958L243.35995 58.22708L244.12558 58.22708L244.12558 56.680206L245.17245 56.055206L245.17245 58.22708L246.23495 58.22708L246.23495 59.03958L245.17245 59.03958L245.17245 62.680206Q245.17245 63.13333 245.21933 63.25833Q245.28183 63.38333 245.40683 63.461456Q245.53183 63.53958 245.7662 63.53958Q245.9537 63.53958 246.23495 63.50833ZM246.5162 62.586456L247.54745 62.430206Q247.6412 63.055206 248.03183 63.38333Q248.43808 63.711456 249.17245 63.711456Q249.8912 63.711456 250.23495 63.430206Q250.59433 63.13333 250.59433 62.72708Q250.59433 62.367706 250.28183 62.16458Q250.06308 62.023956 249.2037 61.805206Q248.04745 61.50833 247.59433 61.305206Q247.15683 61.086456 246.92245 60.711456Q246.68808 60.336456 246.68808 59.867706Q246.68808 59.461456 246.87558 59.10208Q247.06308 58.742706 247.3912 58.50833Q247.6412 58.336456 248.06308 58.211456Q248.48495 58.086456 248.98495 58.086456Q249.7037 58.086456 250.25058 58.305206Q250.81308 58.50833 251.0787 58.867706Q251.34433 59.22708 251.43808 59.82083L250.40683 59.961456Q250.34433 59.492706 250.00058 59.22708Q249.67245 58.94583 249.04745 58.94583Q248.3287 58.94583 248.0162 59.19583Q247.7037 59.430206 247.7037 59.75833Q247.7037 59.961456 247.8287 60.117706Q247.96933 60.28958 248.23495 60.398956Q248.3912 60.461456 249.17245 60.66458Q250.29745 60.97708 250.73495 61.16458Q251.17245 61.35208 251.42245 61.711456Q251.67245 62.07083 251.67245 62.617706Q251.67245 63.148956 251.35995 63.617706Q251.06308 64.07083 250.48495 64.33646Q249.90683 64.58646 249.17245 64.58646Q247.9537 64.58646 247.31308 64.08646Q246.68808 63.57083 246.5162 62.586456ZM252.1412 64.58646L254.62558 55.711456L255.46933 55.711456L252.98495 64.58646L252.1412 64.58646ZM255.5162 62.586456L256.54745 62.430206Q256.6412 63.055206 257.03183 63.38333Q257.43808 63.711456 258.17245 63.711456Q258.8912 63.711456 259.23495 63.430206Q259.59433 63.13333 259.59433 62.72708Q259.59433 62.367706 259.28183 62.16458Q259.06308 62.023956 258.2037 61.805206Q257.04745 61.50833 256.59433 61.305206Q256.15683 61.086456 255.92245 60.711456Q255.68808 60.336456 255.68808 59.867706Q255.68808 59.461456 255.87558 59.10208Q256.06308 58.742706 256.3912 58.50833Q256.6412 58.336456 257.06308 58.211456Q257.48495 58.086456 257.98495 58.086456Q258.7037 58.086456 259.25058 58.305206Q259.81308 58.50833 260.0787 58.867706Q260.34433 59.22708 260.43808 59.82083L259.40683 59.961456Q259.34433 59.492706 259.00058 59.22708Q258.67245 58.94583 258.04745 58.94583Q257.3287 58.94583 257.0162 59.19583Q256.7037 59.430206 256.7037 59.75833Q256.7037 59.961456 256.8287 60.117706Q256.96933 60.28958 257.23495 60.398956Q257.3912 60.461456 258.17245 60.66458Q259.29745 60.97708 259.73495 61.16458Q260.17245 61.35208 260.42245 61.711456Q260.67245 62.07083 260.67245 62.617706Q260.67245 63.148956 260.35995 63.617706Q260.06308 64.07083 259.48495 64.33646Q258.90683 64.58646 258.17245 64.58646Q256.9537 64.58646 256.31308 64.08646Q255.68808 63.57083 255.5162 62.586456ZM266.18808 62.44583L267.28183 62.57083Q267.03183 63.523956 266.3287 64.05521Q265.62558 64.58646 264.54745 64.58646Q263.18808 64.58646 262.37558 63.742706Q261.5787 62.898956 261.5787 61.38333Q261.5787 59.82083 262.3912 58.961456Q263.2037 58.086456 264.48495 58.086456Q265.73495 58.086456 266.5162 58.930206Q267.31308 59.773956 267.31308 61.32083Q267.31308 61.41458 267.31308 61.60208L262.67245 61.60208Q262.73495 62.63333 263.25058 63.180206Q263.7662 63.711456 264.54745 63.711456Q265.12558 63.711456 265.53183 63.41458Q265.9537 63.10208 266.18808 62.44583ZM262.73495 60.742706L266.2037 60.742706Q266.1412 59.94583 265.81308 59.555206Q265.29745 58.94583 264.50058 58.94583Q263.7662 58.94583 263.2662 59.430206Q262.78183 59.91458 262.73495 60.742706ZM273.00058 62.16458L274.03183 62.305206Q273.85995 63.367706 273.15683 63.97708Q272.4537 64.58646 271.43808 64.58646Q270.15683 64.58646 269.37558 63.75833Q268.60995 62.91458 268.60995 61.35208Q268.60995 60.35208 268.93808 59.60208Q269.28183 58.836456 269.9537 58.461456Q270.6412 58.086456 271.4537 58.086456Q272.4537 58.086456 273.09433 58.60208Q273.75058 59.10208 273.93808 60.055206L272.90683 60.211456Q272.7662 59.586456 272.3912 59.273956Q272.0162 58.94583 271.48495 58.94583Q270.68808 58.94583 270.18808 59.523956Q269.68808 60.086456 269.68808 61.32083Q269.68808 62.586456 270.17245 63.148956Q270.65683 63.711456 271.42245 63.711456Q272.04745 63.711456 272.4537 63.336456Q272.87558 62.961456 273.00058 62.16458ZM274.54745 61.336456Q274.54745 59.60208 275.50058 58.773956Q276.29745 58.086456 277.4537 58.086456Q278.73495 58.086456 279.54745 58.930206Q280.37558 59.75833 280.37558 61.242706Q280.37558 62.44583 280.0162 63.13333Q279.65683 63.82083 278.9537 64.21146Q278.2662 64.58646 277.4537 64.58646Q276.15683 64.58646 275.34433 63.75833Q274.54745 62.91458 274.54745 61.336456ZM275.62558 61.336456Q275.62558 62.523956 276.1412 63.117706Q276.67245 63.711456 277.4537 63.711456Q278.25058 63.711456 278.7662 63.117706Q279.28183 62.523956 279.28183 61.305206Q279.28183 60.148956 278.75058 59.555206Q278.23495 58.961456 277.4537 58.961456Q276.67245 58.961456 276.1412 59.555206Q275.62558 60.13333 275.62558 61.336456ZM281.93808 64.44583L281.93808 58.22708L282.87558 58.22708L282.87558 59.10208Q283.56308 58.086456 284.85995 58.086456Q285.42245 58.086456 285.8912 58.28958Q286.37558 58.492706 286.60995 58.82083Q286.84433 59.148956 286.93808 59.586456Q286.98495 59.88333 286.98495 60.617706L286.98495 64.44583L285.93808 64.44583L285.93808 60.66458Q285.93808 60.00833 285.81308 59.69583Q285.68808 59.38333 285.37558 59.19583Q285.06308 58.992706 284.6412 58.992706Q283.96933 58.992706 283.46933 59.430206Q282.98495 59.85208 282.98495 61.03958L282.98495 64.44583L281.93808 64.44583ZM292.96933 64.44583L292.96933 63.66458Q292.37558 64.58646 291.23495 64.58646Q290.48495 64.58646 289.85995 64.18021Q289.23495 63.75833 288.8912 63.023956Q288.54745 62.28958 288.54745 61.336456Q288.54745 60.41458 288.85995 59.648956Q289.17245 58.88333 289.79745 58.492706Q290.42245 58.086456 291.18808 58.086456Q291.75058 58.086456 292.18808 58.32083Q292.62558 58.555206 292.90683 58.930206L292.90683 55.85208L293.9537 55.85208L293.9537 64.44583L292.96933 64.44583ZM289.6412 61.336456Q289.6412 62.53958 290.1412 63.13333Q290.6412 63.711456 291.3287 63.711456Q292.0162 63.711456 292.50058 63.148956Q292.98495 62.586456 292.98495 61.430206Q292.98495 60.148956 292.48495 59.555206Q292.00058 58.961456 291.28183 58.961456Q290.5787 58.961456 290.10995 59.53958Q289.6412 60.10208 289.6412 61.336456Z" fill-rule="nonzero"/><path stroke="#ea4335" stroke-width="4.0" stroke-linecap="butt" d="M311.1412 60.445835L323.1412 60.445835" fill-rule="nonzero"/><path fill="#1a1a1a" d="M333.65683 64.44583L331.29745 58.22708L332.40683 58.22708L333.75058 61.94583Q333.9537 62.555206 334.1412 63.19583Q334.28183 62.711456 334.53183 62.023956L335.92245 58.22708L337.00058 58.22708L334.6412 64.44583L333.65683 64.44583ZM344.2037 61.430206L345.3287 61.72708Q344.96933 63.117706 344.04745 63.85208Q343.12558 64.58646 341.78183 64.58646Q340.3912 64.58646 339.5162 64.02396Q338.6412 63.461456 338.18808 62.398956Q337.73495 61.32083 337.73495 60.086456Q337.73495 58.742706 338.25058 57.742706Q338.7662 56.742706 339.7037 56.22708Q340.65683 55.711456 341.79745 55.711456Q343.0787 55.711456 343.9537 56.367706Q344.84433 57.023956 345.18808 58.211456L344.06308 58.47708Q343.7662 57.53958 343.18808 57.117706Q342.62558 56.680206 341.7662 56.680206Q340.78183 56.680206 340.10995 57.16458Q339.4537 57.63333 339.17245 58.430206Q338.90683 59.22708 338.90683 60.086456Q338.90683 61.180206 339.21933 61.992706Q339.54745 62.805206 340.21933 63.211456Q340.8912 63.617706 341.68808 63.617706Q342.6412 63.617706 343.29745 63.07083Q343.96933 62.523956 344.2037 61.430206ZM347.06308 64.44583L347.06308 55.85208L350.31308 55.85208Q351.15683 55.85208 351.60995 55.930206Q352.25058 56.03958 352.67245 56.336456Q353.10995 56.63333 353.35995 57.16458Q353.62558 57.69583 353.62558 58.336456Q353.62558 59.430206 352.92245 60.19583Q352.23495 60.94583 350.40683 60.94583L348.2037 60.94583L348.2037 64.44583L347.06308 64.44583ZM348.2037 59.94583L350.42245 59.94583Q351.53183 59.94583 351.98495 59.53958Q352.4537 59.117706 352.4537 58.367706Q352.4537 57.836456 352.17245 57.461456Q351.90683 57.07083 351.46933 56.94583Q351.17245 56.867706 350.40683 56.867706L348.2037 56.867706L348.2037 59.94583ZM360.7037 55.85208L361.84433 55.85208L361.84433 60.82083Q361.84433 62.117706 361.54745 62.88333Q361.25058 63.63333 360.48495 64.11771Q359.71933 64.58646 358.48495 64.58646Q357.28183 64.58646 356.50058 64.18021Q355.73495 63.75833 355.40683 62.97708Q355.0787 62.180206 355.0787 60.82083L355.0787 55.85208L356.21933 55.85208L356.21933 60.805206Q356.21933 61.930206 356.42245 62.461456Q356.6412 62.992706 357.1412 63.28958Q357.65683 63.57083 358.3912 63.57083Q359.6412 63.57083 360.17245 63.00833Q360.7037 62.430206 360.7037 60.805206L360.7037 55.85208ZM373.2037 61.430206L374.3287 61.72708Q373.96933 63.117706 373.04745 63.85208Q372.12558 64.58646 370.78183 64.58646Q369.3912 64.58646 368.5162 64.02396Q367.6412 63.461456 367.18808 62.398956Q366.73495 61.32083 366.73495 60.086456Q366.73495 58.742706 367.25058 57.742706Q367.7662 56.742706 368.7037 56.22708Q369.65683 55.711456 370.79745 55.711456Q372.0787 55.711456 372.9537 56.367706Q373.84433 57.023956 374.18808 58.211456L373.06308 58.47708Q372.7662 57.53958 372.18808 57.117706Q371.62558 56.680206 370.7662 56.680206Q369.78183 56.680206 369.10995 57.16458Q368.4537 57.63333 368.17245 58.430206Q367.90683 59.22708 367.90683 60.086456Q367.90683 61.180206 368.21933 61.992706Q368.54745 62.805206 369.21933 63.211456Q369.8912 63.617706 370.68808 63.617706Q371.6412 63.617706 372.29745 63.07083Q372.96933 62.523956 373.2037 61.430206ZM375.54745 61.336456Q375.54745 59.60208 376.50058 58.773956Q377.29745 58.086456 378.4537 58.086456Q379.73495 58.086456 380.54745 58.930206Q381.37558 59.75833 381.37558 61.242706Q381.37558 62.44583 381.0162 63.13333Q380.65683 63.82083 379.9537 64.21146Q379.2662 64.58646 378.4537 64.58646Q377.15683 64.58646 376.34433 63.75833Q375.54745 62.91458 375.54745 61.336456ZM376.62558 61.336456Q376.62558 62.523956 377.1412 63.117706Q377.67245 63.711456 378.4537 63.711456Q379.25058 63.711456 379.7662 63.117706Q380.28183 62.523956 380.28183 61.305206Q380.28183 60.148956 379.75058 59.555206Q379.23495 58.961456 378.4537 58.961456Q377.67245 58.961456 377.1412 59.555206Q376.62558 60.13333 376.62558 61.336456ZM387.0162 64.44583L387.0162 63.523956Q386.28183 64.58646 385.03183 64.58646Q384.48495 64.58646 384.00058 64.38333Q383.53183 64.16458 383.29745 63.85208Q383.06308 63.523956 382.96933 63.055206Q382.90683 62.75833 382.90683 62.07083L382.90683 58.22708L383.96933 58.22708L383.96933 61.680206Q383.96933 62.492706 384.03183 62.78958Q384.12558 63.19583 384.43808 63.44583Q384.7662 63.680206 385.25058 63.680206Q385.71933 63.680206 386.12558 63.44583Q386.54745 63.19583 386.71933 62.773956Q386.90683 62.35208 386.90683 61.555206L386.90683 58.22708L387.9537 58.22708L387.9537 64.44583L387.0162 64.44583ZM389.93808 64.44583L389.93808 58.22708L390.87558 58.22708L390.87558 59.10208Q391.56308 58.086456 392.85995 58.086456Q393.42245 58.086456 393.8912 58.28958Q394.37558 58.492706 394.60995 58.82083Q394.84433 59.148956 394.93808 59.586456Q394.98495 59.88333 394.98495 60.617706L394.98495 64.44583L393.93808 64.44583L393.93808 60.66458Q393.93808 60.00833 393.81308 59.69583Q393.68808 59.38333 393.37558 59.19583Q393.06308 58.992706 392.6412 58.992706Q391.96933 58.992706 391.46933 59.430206Q390.98495 59.85208 390.98495 61.03958L390.98495 64.44583L389.93808 64.44583ZM399.23495 63.50833L399.3912 64.43021Q398.93808 64.52396 398.59433 64.52396Q398.0162 64.52396 397.7037 64.35208Q397.3912 64.16458 397.25058 63.867706Q397.12558 63.57083 397.12558 62.617706L397.12558 59.03958L396.35995 59.03958L396.35995 58.22708L397.12558 58.22708L397.12558 56.680206L398.17245 56.055206L398.17245 58.22708L399.23495 58.22708L399.23495 59.03958L398.17245 59.03958L398.17245 62.680206Q398.17245 63.13333 398.21933 63.25833Q398.28183 63.38333 398.40683 63.461456Q398.53183 63.53958 398.7662 63.53958Q398.9537 63.53958 399.23495 63.50833Z" fill-rule="nonzero"/><path fill="#757575" d="M19.316774 36.079166L19.316774 21.766666L22.17615 21.766666L25.55115 31.891666Q26.0199 33.31354 26.23865 34.016666Q26.48865 33.235416 27.004274 31.719791L30.42615 21.766666L32.973022 21.766666L32.973022 36.079166L31.160524 36.079166L31.160524 24.094791L26.98865 36.079166L25.285524 36.079166L21.1449 23.891666L21.1449 36.079166L19.316774 36.079166ZM43.254272 32.735416L45.066772 32.96979Q44.644897 34.547916 43.473022 35.43854Q42.316772 36.31354 40.504272 36.31354Q38.238647 36.31354 36.894897 34.922916Q35.566772 33.516666 35.566772 30.985416Q35.566772 28.360416 36.910522 26.922916Q38.254272 25.469791 40.410522 25.469791Q42.488647 25.469791 43.801147 26.891666Q45.129272 28.297916 45.129272 30.876041Q45.129272 31.032291 45.113647 31.344791L37.379272 31.344791Q37.473022 33.047916 38.348022 33.954166Q39.223022 34.860416 40.519897 34.860416Q41.488647 34.860416 42.160522 34.360416Q42.848022 33.84479 43.254272 32.735416ZM37.473022 29.891666L43.269897 29.891666Q43.160522 28.594791 42.613647 27.938541Q41.769897 26.922916 40.426147 26.922916Q39.223022 26.922916 38.394897 27.735416Q37.566772 28.532291 37.473022 29.891666ZM47.144897 36.079166L47.144897 25.704166L48.723022 25.704166L48.723022 27.157291Q49.207397 26.407291 50.019897 25.938541Q50.832397 25.469791 51.863647 25.469791Q53.019897 25.469791 53.754272 25.954166Q54.488647 26.422916 54.801147 27.282291Q56.035522 25.469791 58.004272 25.469791Q59.551147 25.469791 60.379272 26.329166Q61.207397 27.188541 61.207397 28.954166L61.207397 36.079166L59.457397 36.079166L59.457397 29.547916Q59.457397 28.485416 59.285522 28.032291Q59.113647 27.563541 58.660522 27.282291Q58.223022 27.001041 57.613647 27.001041Q56.519897 27.001041 55.785522 27.735416Q55.066772 28.454166 55.066772 30.047916L55.066772 36.079166L53.316772 36.079166L53.316772 29.344791Q53.316772 28.172916 52.879272 27.594791Q52.457397 27.001041 51.473022 27.001041Q50.738647 27.001041 50.098022 27.391666Q49.473022 27.782291 49.191772 28.532291Q48.910522 29.282291 48.910522 30.704166L48.910522 36.079166L47.144897 36.079166ZM63.504272 30.891666Q63.504272 28.016666 65.09802 26.626041Q66.44177 25.469791 68.36365 25.469791Q70.50427 25.469791 71.84802 26.876041Q73.2074 28.282291 73.2074 30.751041Q73.2074 32.75104 72.61365 33.90729Q72.0199 35.047916 70.86365 35.68854Q69.72302 36.31354 68.36365 36.31354Q66.17615 36.31354 64.8324 34.922916Q63.504272 33.516666 63.504272 30.891666ZM65.30115 30.891666Q65.30115 32.891666 66.16052 33.87604Q67.03552 34.860416 68.36365 34.860416Q69.67615 34.860416 70.53552 33.87604Q71.41052 32.87604 71.41052 30.829166Q71.41052 28.907291 70.53552 27.922916Q69.66052 26.922916 68.36365 26.922916Q67.03552 26.922916 66.16052 27.922916Q65.30115 28.907291 65.30115 30.891666ZM75.12927 36.079166L75.12927 25.704166L76.7074 25.704166L76.7074 27.282291Q77.31677 26.172916 77.8324 25.829166Q78.34802 25.469791 78.9574 25.469791Q79.84802 25.469791 80.7699 26.032291L80.16052 27.672916Q79.5199 27.282291 78.87927 27.282291Q78.30115 27.282291 77.8324 27.641666Q77.37927 27.985416 77.17615 28.594791Q76.8949 29.532291 76.8949 30.641666L76.8949 36.079166L75.12927 36.079166ZM82.06677 40.079166L81.87927 38.422916Q82.4574 38.579166 82.87927 38.579166Q83.47302 38.579166 83.81677 38.37604Q84.17615 38.18854 84.3949 37.84479Q84.56677 37.579166 84.94177 36.53229Q84.98865 36.37604 85.09802 36.09479L81.16052 25.704166L83.05115 25.704166L85.2074 31.719791Q85.62927 32.860416 85.9574 34.110416Q86.2699 32.90729 86.67615 31.751041L88.8949 25.704166L90.66052 25.704166L86.7074 36.25104Q86.0824 37.96979 85.72302 38.610416Q85.25427 39.485416 84.6449 39.87604Q84.05115 40.28229 83.2074 40.28229Q82.69177 40.28229 82.06677 40.079166ZM96.80115 36.079166L102.30115 21.766666L104.34802 21.766666L110.2074 36.079166L108.05115 36.079166L106.37927 31.735416L100.3949 31.735416L98.81677 36.079166L96.80115 36.079166ZM100.94177 30.204166L105.78552 30.204166L104.30115 26.235416Q103.61365 24.422916 103.28552 23.266666Q103.00427 24.641666 102.50427 26.001041L100.94177 30.204166ZM111.11365 36.079166L111.11365 21.766666L112.86365 21.766666L112.86365 36.079166L111.11365 36.079166ZM115.11365 36.079166L115.11365 21.766666L116.86365 21.766666L116.86365 36.079166L115.11365 36.079166ZM118.50427 30.891666Q118.50427 28.016666 120.09802 26.626041Q121.44177 25.469791 123.36365 25.469791Q125.50427 25.469791 126.84802 26.876041Q128.2074 28.282291 128.2074 30.751041Q128.2074 32.75104 127.61365 33.90729Q127.0199 35.047916 125.86365 35.68854Q124.72302 36.31354 123.36365 36.31354Q121.17615 36.31354 119.8324 34.922916Q118.50427 33.516666 118.50427 30.891666ZM120.30115 30.891666Q120.30115 32.891666 121.16052 33.87604Q122.03552 34.860416 123.36365 34.860416Q124.67615 34.860416 125.53552 33.87604Q126.41052 32.87604 126.41052 30.829166Q126.41052 28.907291 125.53552 27.922916Q124.66052 26.922916 123.36365 26.922916Q122.03552 26.922916 121.16052 27.922916Q120.30115 28.907291 120.30115 30.891666ZM136.92615 32.28229L138.6449 32.50104Q138.36365 34.297916 137.19177 35.31354Q136.03552 36.31354 134.3324 36.31354Q132.2074 36.31354 130.91052 34.922916Q129.61365 33.53229 129.61365 30.938541Q129.61365 29.251041 130.16052 28.001041Q130.72302 26.735416 131.86365 26.110416Q133.00427 25.469791 134.34802 25.469791Q136.03552 25.469791 137.09802 26.329166Q138.17615 27.188541 138.48865 28.751041L136.7699 29.016666Q136.53552 27.969791 135.91052 27.454166Q135.28552 26.922916 134.41052 26.922916Q133.0824 26.922916 132.25427 27.876041Q131.42615 28.829166 131.42615 30.876041Q131.42615 32.96979 132.22302 33.922916Q133.0199 34.860416 134.31677 34.860416Q135.34802 34.860416 136.03552 34.235416Q136.73865 33.59479 136.92615 32.28229ZM146.92615 34.797916Q145.94177 35.62604 145.03552 35.96979Q144.12927 36.31354 143.09802 36.31354Q141.3949 36.31354 140.47302 35.485416Q139.55115 34.641666 139.55115 33.34479Q139.55115 32.579166 139.8949 31.954166Q140.25427 31.329166 140.81677 30.954166Q141.37927 30.563541 142.0824 30.360416Q142.59802 30.235416 143.6449 30.094791Q145.7699 29.844791 146.7699 29.501041Q146.78552 29.141666 146.78552 29.032291Q146.78552 27.969791 146.28552 27.516666Q145.61365 26.922916 144.28552 26.922916Q143.03552 26.922916 142.44177 27.360416Q141.86365 27.797916 141.5824 28.907291L139.86365 28.672916Q140.09802 27.563541 140.62927 26.891666Q141.16052 26.204166 142.17615 25.844791Q143.19177 25.469791 144.53552 25.469791Q145.86365 25.469791 146.69177 25.782291Q147.5199 26.094791 147.91052 26.579166Q148.30115 27.047916 148.4574 27.766666Q148.55115 28.219791 148.55115 29.391666L148.55115 31.735416Q148.55115 34.18854 148.66052 34.84479Q148.7699 35.485416 149.11365 36.079166L147.2699 36.079166Q147.00427 35.53229 146.92615 34.797916ZM146.7699 30.876041Q145.81677 31.266666 143.8949 31.532291Q142.81677 31.688541 142.36365 31.891666Q141.92615 32.079166 141.67615 32.454166Q141.42615 32.829166 141.42615 33.297916Q141.42615 34.00104 141.9574 34.46979Q142.48865 34.93854 143.5199 34.93854Q144.53552 34.93854 145.31677 34.50104Q146.11365 34.047916 146.48865 33.28229Q146.7699 32.672916 146.7699 31.516666L146.7699 30.876041ZM154.98865 34.50104L155.23865 36.06354Q154.50427 36.21979 153.91052 36.21979Q152.9574 36.21979 152.42615 35.922916Q151.91052 35.610416 151.69177 35.12604Q151.47302 34.62604 151.47302 33.047916L151.47302 27.079166L150.19177 27.079166L150.19177 25.704166L151.47302 25.704166L151.47302 23.141666L153.22302 22.079166L153.22302 25.704166L154.98865 25.704166L154.98865 27.079166L153.22302 27.079166L153.22302 33.141666Q153.22302 33.891666 153.31677 34.110416Q153.41052 34.31354 153.61365 34.454166Q153.8324 34.579166 154.22302 34.579166Q154.50427 34.579166 154.98865 34.50104ZM157.16052 23.782291L157.16052 21.766666L158.92615 21.766666L158.92615 23.782291L157.16052 23.782291ZM157.16052 36.079166L157.16052 25.704166L158.92615 25.704166L158.92615 36.079166L157.16052 36.079166ZM160.50427 30.891666Q160.50427 28.016666 162.09802 26.626041Q163.44177 25.469791 165.36365 25.469791Q167.50427 25.469791 168.84802 26.876041Q170.2074 28.282291 170.2074 30.751041Q170.2074 32.75104 169.61365 33.90729Q169.0199 35.047916 167.86365 35.68854Q166.72302 36.31354 165.36365 36.31354Q163.17615 36.31354 161.8324 34.922916Q160.50427 33.516666 160.50427 30.891666ZM162.30115 30.891666Q162.30115 32.891666 163.16052 33.87604Q164.03552 34.860416 165.36365 34.860416Q166.67615 34.860416 167.53552 33.87604Q168.41052 32.87604 168.41052 30.829166Q168.41052 28.907291 167.53552 27.922916Q166.66052 26.922916 165.36365 26.922916Q164.03552 26.922916 163.16052 27.922916Q162.30115 28.907291 162.30115 30.891666ZM172.1449 36.079166L172.1449 25.704166L173.73865 25.704166L173.73865 27.188541Q174.87927 25.469791 177.03552 25.469791Q177.97302 25.469791 178.75427 25.813541Q179.55115 26.141666 179.94177 26.688541Q180.3324 27.235416 180.48865 27.985416Q180.5824 28.485416 180.5824 29.704166L180.5824 36.079166L178.81677 36.079166L178.81677 29.766666Q178.81677 28.688541 178.61365 28.157291Q178.41052 27.626041 177.87927 27.313541Q177.36365 27.001041 176.66052 27.001041Q175.53552 27.001041 174.72302 27.719791Q173.91052 28.422916 173.91052 30.407291L173.91052 36.079166L172.1449 36.079166ZM192.03552 36.079166L188.0824 25.704166L189.94177 25.704166L192.17615 31.922916Q192.53552 32.922916 192.8324 34.00104Q193.06677 33.18854 193.48865 32.03229L195.78552 25.704166L197.59802 25.704166L193.67615 36.079166L192.03552 36.079166ZM198.44177 32.985416L200.19177 32.704166Q200.3324 33.75104 201.00427 34.31354Q201.67615 34.860416 202.87927 34.860416Q204.0824 34.860416 204.66052 34.37604Q205.25427 33.87604 205.25427 33.21979Q205.25427 32.62604 204.73865 32.28229Q204.37927 32.047916 202.94177 31.688541Q201.00427 31.188541 200.25427 30.844791Q199.5199 30.485416 199.12927 29.860416Q198.73865 29.219791 198.73865 28.454166Q198.73865 27.766666 199.05115 27.172916Q199.37927 26.579166 199.92615 26.188541Q200.3324 25.891666 201.03552 25.688541Q201.75427 25.469791 202.56677 25.469791Q203.78552 25.469791 204.7074 25.829166Q205.62927 26.172916 206.06677 26.782291Q206.50427 27.376041 206.67615 28.376041L204.9574 28.610416Q204.8324 27.813541 204.2699 27.376041Q203.7074 26.922916 202.69177 26.922916Q201.47302 26.922916 200.9574 27.329166Q200.44177 27.719791 200.44177 28.251041Q200.44177 28.594791 200.66052 28.876041Q200.86365 29.157291 201.3324 29.344791Q201.59802 29.438541 202.87927 29.782291Q204.75427 30.282291 205.48865 30.610416Q206.22302 30.922916 206.6449 31.532291Q207.06677 32.12604 207.06677 33.03229Q207.06677 33.90729 206.55115 34.68854Q206.03552 35.46979 205.06677 35.891666Q204.09802 36.31354 202.87927 36.31354Q200.86365 36.31354 199.80115 35.46979Q198.73865 34.62604 198.44177 32.985416ZM218.03552 36.079166L214.0824 25.704166L215.94177 25.704166L218.17615 31.922916Q218.53552 32.922916 218.8324 34.00104Q219.06677 33.18854 219.48865 32.03229L221.78552 25.704166L223.59802 25.704166L219.67615 36.079166L218.03552 36.079166ZM235.59802 31.063541L237.48865 31.532291Q236.8949 33.87604 235.34802 35.110416Q233.80115 36.329166 231.55115 36.329166Q229.23865 36.329166 227.78552 35.391666Q226.34802 34.43854 225.5824 32.65729Q224.8324 30.860416 224.8324 28.813541Q224.8324 26.579166 225.67615 24.922916Q226.53552 23.251041 228.11365 22.391666Q229.69177 21.516666 231.5824 21.516666Q233.73865 21.516666 235.19177 22.610416Q236.66052 23.704166 237.23865 25.688541L235.37927 26.126041Q234.87927 24.563541 233.92615 23.860416Q232.98865 23.141666 231.55115 23.141666Q229.8949 23.141666 228.78552 23.938541Q227.67615 24.719791 227.22302 26.063541Q226.78552 27.391666 226.78552 28.797916Q226.78552 30.626041 227.31677 32.00104Q227.84802 33.360416 228.97302 34.03229Q230.09802 34.704166 231.3949 34.704166Q232.98865 34.704166 234.09802 33.78229Q235.2074 32.860416 235.59802 31.063541ZM239.37927 36.079166L239.37927 21.766666L244.7699 21.766666Q246.2074 21.766666 246.9574 21.891666Q248.00427 22.079166 248.72302 22.579166Q249.44177 23.063541 249.86365 23.954166Q250.30115 24.844791 250.30115 25.907291Q250.30115 27.735416 249.12927 29.001041Q247.97302 30.251041 244.94177 30.251041L241.2699 30.251041L241.2699 36.079166L239.37927 36.079166ZM241.2699 28.563541L244.97302 28.563541Q246.80115 28.563541 247.56677 27.891666Q248.34802 27.204166 248.34802 25.954166Q248.34802 25.063541 247.8949 24.422916Q247.44177 23.782291 246.7074 23.579166Q246.22302 23.454166 244.92615 23.454166L241.2699 23.454166L241.2699 28.563541ZM261.7699 21.766666L263.66052 21.766666L263.66052 30.032291Q263.66052 32.18854 263.17615 33.46979Q262.69177 34.735416 261.41052 35.53229Q260.1449 36.329166 258.06677 36.329166Q256.05115 36.329166 254.7699 35.641666Q253.50427 34.93854 252.9574 33.62604Q252.41052 32.31354 252.41052 30.032291L252.41052 21.766666L254.30115 21.766666L254.30115 30.016666Q254.30115 31.891666 254.6449 32.78229Q254.98865 33.65729 255.8324 34.141666Q256.67615 34.610416 257.91052 34.610416Q259.98865 34.610416 260.87927 33.672916Q261.7699 32.71979 261.7699 30.016666L261.7699 21.766666Z" fill-rule="nonzero"/></svg>